<?xml version="1.0" encoding="utf-8"?>
<!-- Generator: Adobe Illustrator 21.0.2, SVG Export Plug-In . SVG Version: 6.00 Build 0)  -->
<svg version="1.1" id="Capa_1" xmlns="http://www.w3.org/2000/svg" xmlns:xlink="http://www.w3.org/1999/xlink" x="0px" y="0px"
	 viewBox="0 0 427.7 432.3" style="enable-background:new 0 0 427.7 432.3;" xml:space="preserve">
<style type="text/css">
	.st0{fill:url(#SVGID_1_);}
	.st1{fill:#FFFFFF;}
</style>
<g>
	<linearGradient id="SVGID_1_" gradientUnits="userSpaceOnUse" x1="216.9558" y1="387.6807" x2="216.9558" y2="33.7114">
		<stop  offset="0" style="stop-color:#5AB137"/>
		<stop  offset="0.5" style="stop-color:#1A9739"/>
		<stop  offset="1" style="stop-color:#5AB137"/>
	</linearGradient>
	<path class="st0" d="M217,33.7c-97.7,0-177,79.2-177,177c0,57.2,34.5,105,34.5,105l-21.6,64.4l66.5-21.7c0,0,43.4,29.3,97.5,29.3
		c97.7,0,177-79.2,177-177C393.9,112.9,314.7,33.7,217,33.7z"/>
	<path class="st1" d="M217,0C100.6,0,6.3,94.3,6.3,210.7c0,57.8,30.6,109.4,30.6,109.4L0,432.3l115.4-36.9c0,0,42.9,26,101.5,26
		c116.4,0,210.7-94.3,210.7-210.7C427.7,94.3,333.3,0,217,0z M217,387.7c-54.2,0-97.5-29.3-97.5-29.3l-66.5,21.7l21.6-64.4
		c0,0-34.5-47.7-34.5-105c0-97.7,79.2-177,177-177c97.7,0,177,79.2,177,177C393.9,308.4,314.7,387.7,217,387.7z"/>
	<path class="st1" d="M136.7,119c0,0,5.7-3.6,8.7-3.6c3,0,16.6,0,16.6,0s4.5,0.8,6.5,5.4c2,4.6,16,37.5,17.1,40.1
		c1,2.5,3.8,8.8-0.6,14.4c-4.4,5.6-13.5,16.1-13.5,16.1s-3.6,3.2-0.5,8.4c3.1,5.2,14.1,22.2,28.5,35.1c14.4,12.9,32,22.4,40.8,25.3
		c8.8,2.9,10.7-1,14.1-5.3c3.4-4.3,13.8-17.6,13.8-17.6s3.6-5.3,10.7-2c7.1,3.2,41.6,20,41.6,20s4.2,0.7,4.4,5.4
		c0.2,4.7,3.1,18.7-9.4,32.2c-12.5,13.5-39.1,19.8-51.7,16.2c-12.6-3.5-54.3-14.4-81.4-39.8s-49.2-52-58.2-71.7
		c-9-19.7-8.5-31.3-8-36.8S119.7,129.9,136.7,119z"/>
</g>
</svg>
